<?xml version="1.0" encoding="utf-8"?>
<!-- Generator: Adobe Illustrator 19.1.1, SVG Export Plug-In . SVG Version: 6.00 Build 0)  -->
<svg version="1.1" xmlns="http://www.w3.org/2000/svg" xmlns:xlink="http://www.w3.org/1999/xlink" x="0px" y="0px"
	 viewBox="0 0 491 566.9" style="enable-background:new 0 0 491 566.9;" xml:space="preserve">
<style type="text/css">
	.st0{fill:#FFFFFF;}
	.st1{fill:#F2902D;}
	.st2{fill:#048196;}
	.st3{fill:#A4DCE2;}
	.st4{font-family:'Helvetica';}
	.st5{font-size:15.7581px;}
</style>
<g id="Background">
	<polygon class="st0" points="245.5,547.6 16.8,415.5 16.8,151.4 245.5,19.4 474.2,151.4 474.2,415.5 	"/>
</g>
<g id="Graphique">
	<polygon id="Confidence_interval" class="st3" points="374.8,349 399.9,277.1 425,216.5 450.1,203.9 475.2,181.1 475.2,344 
		450.1,326.1 425,298 399.9,317.9 374.8,349 	"/>
	<path class="st2" d="M81,350.4C81,350.4,81,350.4,81,350.4c-0.5,0-1-0.3-1.2-0.8l-29-79.7l-24.3-1.3c-0.3,0-0.6-0.2-0.8-0.4
		l-25.1-26c-0.5-0.5-0.5-1.3,0-1.8c0.5-0.5,1.3-0.5,1.8,0l24.8,25.6l24.6,1.3c0.5,0,0.9,0.3,1.1,0.8L81,345.6l18.9-51.8
		c0.2-0.4,0.6-0.8,1-0.8l23.2-2.5c0.3,0,0.5,0,0.8,0.2l25.7,14.9l25.7-15.3l25-86.4c0.1-0.4,0.4-0.7,0.8-0.8
		c0.4-0.1,0.8-0.1,1.1,0.2l24.8,19.4l24.8,3.6c0.5,0.1,0.8,0.4,1,0.8l24.4,69.7l23.7-24.9c0.3-0.3,0.8-0.5,1.3-0.3l25.1,7.8
		c0.4,0.1,0.7,0.4,0.8,0.7l18.2,48.4l26.8,18.6l24.6-70.3l25.1-60.6c0.1-0.3,0.3-0.5,0.6-0.6l25-12.6l25-22.7
		c0.5-0.5,1.3-0.4,1.8,0.1c0.5,0.5,0.4,1.3-0.1,1.8L451,204.8c-0.1,0.1-0.2,0.1-0.3,0.2L426,217.5l-24.9,60.2l-18.1,51.9l15.9-32.5
		c0,0,0-0.1,0.1-0.1l25.1-40.2c0.3-0.5,0.9-0.7,1.4-0.5l24.9,7.7l24.9-2.4c0.7-0.1,1.3,0.4,1.4,1.1c0.1,0.7-0.4,1.3-1.1,1.4
		l-25.1,2.4c-0.2,0-0.3,0-0.5,0l-24.2-7.4L401,298.1l-20.3,41.5l18.2-22.6c0.1-0.1,0.1-0.1,0.2-0.2l25.1-19.9
		c0.5-0.4,1.3-0.3,1.7,0.1l25,28l25,17.8c0.6,0.4,0.7,1.2,0.3,1.7c-0.4,0.6-1.2,0.7-1.7,0.3l-25.1-17.9c-0.1-0.1-0.1-0.1-0.2-0.2
		l-24.3-27.2l-24.1,19.1l-25,31c-0.1,0.1-0.1,0.1-0.2,0.2c-0.1,0.1-0.3,0.2-0.4,0.2c-0.2,0.1-0.4,0.1-0.6,0c-0.1,0-0.3-0.1-0.4-0.1
		c0,0-0.1-0.1-0.1-0.1l-28.5-19.7c-0.2-0.1-0.4-0.3-0.5-0.6L327,281.5l-23.8-7.3L278.6,300c-0.3,0.3-0.7,0.5-1.2,0.4
		c-0.4-0.1-0.8-0.4-0.9-0.8l-24.9-70.9l-24.4-3.6c-0.2,0-0.4-0.1-0.6-0.2l-23.7-18.5l-24.6,85.1c-0.1,0.3-0.3,0.6-0.6,0.7L151.2,308
		c-0.4,0.2-0.9,0.2-1.3,0L124,293l-22,2.4l-19.8,54.2C82,350.1,81.6,350.4,81,350.4z"/>
	<g id="Boules">
		<path class="st2" d="M177.5,284.9c-3.4,0-6.1,2.8-6.1,6.1c0,3.4,2.8,6.1,6.1,6.1c3.4,0,6.1-2.8,6.1-6.1
			C183.7,287.7,180.9,284.9,177.5,284.9z"/>
		<path class="st2" d="M150.6,300.5c-3.4,0-6.1,2.8-6.1,6.1s2.8,6.1,6.1,6.1s6.1-2.8,6.1-6.1S154,300.5,150.6,300.5z"/>
		<path class="st2" d="M123.7,284.9c-3.4,0-6.1,2.8-6.1,6.1c0,3.4,2.8,6.1,6.1,6.1s6.1-2.8,6.1-6.1
			C129.9,287.7,127.1,284.9,123.7,284.9z"/>
		<path class="st2" d="M202.6,198c-3.4,0-6.1,2.8-6.1,6.1s2.8,6.1,6.1,6.1s6.1-2.8,6.1-6.1S206,198,202.6,198z"/>
		<path class="st2" d="M26.8,261.2c-3.4,0-6.1,2.8-6.1,6.1c0,3.4,2.8,6.1,6.1,6.1s6.1-2.8,6.1-6.1C33,264,30.2,261.2,26.8,261.2z"/>
		<path class="st2" d="M227.8,217.7c-3.4,0-6.1,2.8-6.1,6.1s2.8,6.1,6.1,6.1s6.1-2.8,6.1-6.1S231.2,217.7,227.8,217.7z"/>
		<path class="st2" d="M52,262.6c-3.4,0-6.1,2.8-6.1,6.1c0,3.4,2.8,6.1,6.1,6.1c3.4,0,6.1-2.8,6.1-6.1
			C58.2,265.3,55.4,262.6,52,262.6z"/>
		<path class="st2" d="M100.9,288.3c-3.4,0-6.1,2.8-6.1,6.1s2.8,6.1,6.1,6.1s6.1-2.8,6.1-6.1S104.3,288.3,100.9,288.3z"/>
		<path class="st2" d="M278,293c-3.4,0-6.1,2.8-6.1,6.1c0,3.4,2.8,6.1,6.1,6.1c3.4,0,6.1-2.8,6.1-6.1C284.2,295.7,281.4,293,278,293
			z"/>
		<path class="st2" d="M425,251.5c-3.4,0-6.1,2.8-6.1,6.1c0,3.4,2.8,6.1,6.1,6.1c3.4,0,6.1-2.8,6.1-6.1
			C431.2,254.3,428.4,251.5,425,251.5z"/>
		<path class="st2" d="M450.2,258.9c-3.4,0-6.1,2.8-6.1,6.1c0,3.4,2.8,6.1,6.1,6.1s6.1-2.8,6.1-6.1
			C456.3,261.7,453.6,258.9,450.2,258.9z"/>
		<path class="st2" d="M474.2,256.4c-3.4,0-6.1,2.8-6.1,6.1c0,3.4,2.8,6.1,6.1,6.1c3.4,0,6.1-2.8,6.1-6.1
			C480.4,259.2,477.6,256.4,474.2,256.4z"/>
		<path class="st2" d="M399.9,291.9c-3.4,0-6.1,2.8-6.1,6.1c0,3.4,2.8,6.1,6.1,6.1c3.4,0,6.1-2.8,6.1-6.1
			C406.1,294.6,403.3,291.9,399.9,291.9z"/>
		<path class="st2" d="M328.1,274.3c-3.4,0-6.1,2.8-6.1,6.1c0,3.4,2.8,6.1,6.1,6.1s6.1-2.8,6.1-6.1
			C334.3,277.1,331.5,274.3,328.1,274.3z"/>
		<path class="st2" d="M303.1,266.6c-3.4,0-6.1,2.8-6.1,6.1s2.8,6.1,6.1,6.1c3.4,0,6.1-2.8,6.1-6.1S306.5,266.6,303.1,266.6z"/>
		<path class="st2" d="M252.8,221.3c-3.4,0-6.1,2.8-6.1,6.1s2.8,6.1,6.1,6.1s6.1-2.8,6.1-6.1S256.2,221.3,252.8,221.3z"/>
		<path class="st2" d="M346,323.1c-3.4,0-6.1,2.8-6.1,6.1c0,3.4,2.8,6.1,6.1,6.1c3.4,0,6.1-2.8,6.1-6.1
			C352.1,325.9,349.4,323.1,346,323.1z"/>
	</g>
</g>
<g id="Hexagone">
	<g>
		<path class="st3" d="M245.5,0L0,141.7v283.5l245.5,141.7L491,425.2V141.7L245.5,0z M474.2,415.5l-228.7,132l-228.7-132V151.4
			l228.7-132l228.7,132V415.5z"/>
	</g>
</g>
<g id="Text">
	<g>
		<g>
			<path class="st2" d="M60.6,355.6l0.5,3c2-3.2,4.7-3.7,7.4-3.7c2.7,0,5.3,1.1,6.7,2.5l-2.9,5.6c-1.3-1.1-2.5-1.7-4.7-1.7
				c-3.4,0-6.5,1.8-6.5,6.6v13.8h-6.5v-26.1H60.6z"/>
			<path class="st2" d="M84,355.5v31.8c0,6.5-2.8,10.7-8.7,10.7c-1.9,0-3.9-0.5-5.8-1.8l2.3-5c1.1,0.5,2.2,0.8,3.1,0.7
				c2.1-0.1,2.6-1.8,2.6-4.6v-31.8H84z M77,348.2c0,5,7.6,5,7.6,0S77,343.1,77,348.2z"/>
			<path class="st2" d="M116.7,344.7v37.1h-6l-0.4-3.6c-2,3.1-5.3,4.2-8.4,4.2c-7.7,0-13.5-5.1-13.5-13.7c0-9,5.7-13.7,13.3-13.7
				c2.8,0,7.1,1.5,8.6,4.2v-14.5H116.7z M94.8,368.6c0,4.6,3.3,7.7,7.4,7.7c4.1,0,7.6-3,7.6-7.7c0-4.6-3.5-7.6-7.6-7.6
				C98.1,361,94.8,363.9,94.8,368.6z"/>
			<path class="st1" d="M130.6,365.5v-5.7h5.4c3.8,0,7.7-1,7.8-4.5c0-2.1-1.7-4.9-7.6-4.9c-3.3,0-7.7,1.2-7.7,4.6h-7
				c0-8,8-10.9,14.8-10.9c7,0,14.5,3.4,14.6,11.3c0,2.9-1.9,6.3-5.1,7.3c3.6,1.2,6,4.7,6,7.8c0,9.1-8.5,11.8-15.7,11.8
				c-7.1,0-15.1-3-15.2-11.4h7.1c0,3.8,5.1,5.1,8.2,5.1c3.6,0,8.3-1.5,8.3-5.5c0-2.2-1.2-5-7.9-5H130.6z"/>
			<path class="st2" d="M176.2,381.7V368c0-4-2.2-7-6.3-7c-4,0-6.7,3.3-6.7,7.3v13.4h-6.4v-26.2h5.8l0.4,3.6
				c2.7-2.6,5.3-3.9,8.6-3.9c6.2,0,11.1,4.6,11.1,12.8v13.7H176.2z"/>
			<path class="st2" d="M214.2,368.7c0,7.5-5.1,13.6-13.6,13.6c-8.5,0-13.6-6.1-13.6-13.6c0-7.5,5.2-13.6,13.5-13.6
				C208.9,355.1,214.2,361.2,214.2,368.7z M193.5,368.7c0,4,2.4,7.7,7.1,7.7s7.1-3.7,7.1-7.7c0-3.9-2.8-7.7-7.1-7.7
				C195.9,360.9,193.5,364.8,193.5,368.7z"/>
			<path class="st2" d="M241.6,355.5l5.7,19.7l6-19.7h7.2l-9.1,26.3h-7.5l-2.7-7.7l-2.3-8.7l-2.3,8.7l-2.7,7.7h-7.5l-9.2-26.3h7.2
				l6,19.7l5.7-19.7H241.6z"/>
			<path class="st2" d="M288.4,378.4c-3,3-6.2,4.1-10.1,4.1c-7.6,0-13.9-4.6-13.9-13.8s6.3-13.8,13.9-13.8c3.7,0,6.6,1.1,9.4,3.9
				l-4.1,4.3c-1.5-1.4-3.4-2.1-5.2-2.1c-4.3,0-7.5,3.2-7.5,7.7c0,5,3.4,7.6,7.4,7.6c2.1,0,4.1-0.6,5.7-2.2L288.4,378.4z"/>
			<path class="st2" d="M312,355.6h6.2v26.1h-6.1l-0.3-3.8c-1.5,3.1-5.6,4.6-8.5,4.6c-7.7,0.1-13.5-4.7-13.5-13.9
				c0-9,6-13.7,13.6-13.7c3.5,0,6.8,1.6,8.3,4.2L312,355.6z M296.3,368.6c0,5,3.4,8,7.7,8c10.2,0,10.2-15.9,0-15.9
				C299.7,360.7,296.3,363.6,296.3,368.6z"/>
			<path class="st2" d="M340.7,362.5c-1.9-1.8-4-2.3-6.5-2.3c-3.1,0-4.8,1-4.8,2.6c0,1.7,1.5,2.7,4.9,2.9c4.9,0.3,11.2,1.4,11.2,8.4
				c0,4.6-3.8,8.6-11.2,8.6c-4.1,0-8.3-0.7-12.1-4.7l3.2-4.6c1.9,2.1,6.1,3.6,9,3.7c2.4,0.1,4.7-1.2,4.7-3.1c0-1.8-1.5-2.5-5.2-2.8
				c-4.9-0.4-10.8-2.2-10.8-8.1c0-6,6.3-8.2,11-8.2c4.1,0,7.2,0.8,10.2,3.4L340.7,362.5z"/>
			<path class="st2" d="M358.8,348.2v7.4h7.2v5.6h-7.3v11.3c0,2.5,1.4,3.7,3.4,3.7c1,0,2.2-0.3,3.1-0.8l1.8,5.5
				c-1.9,0.7-3.4,1.1-5.4,1.1c-5.7,0.2-9.4-3-9.4-9.5v-11.3h-4.9v-5.6h4.9v-6.7L358.8,348.2z"/>
			<path class="st2" d="M377.9,348.2c0,5-7.6,5-7.6,0C370.2,343.2,377.9,343.2,377.9,348.2z M370.8,355.5v26.2h6.5v-26.2H370.8z"/>
			<path class="st2" d="M402.4,381.7V368c0-4-2.2-7-6.3-7c-4,0-6.7,3.3-6.7,7.3v13.4H383v-26.2h5.8l0.4,3.6c2.7-2.6,5.3-3.9,8.6-3.9
				c6.2,0,11.1,4.6,11.1,12.8v13.7H402.4z"/>
			<path class="st2" d="M434.9,352.9l4.8,3.6l-2.9,3.7c2,2.3,2.8,4.9,2.8,7.7c0,3.2-1.2,7.8-5.5,9.8c4.3,2.2,5.4,5.3,5.4,8.6
				c0,7.2-5.5,11.7-13.1,11.7c-7.6,0-13.3-4.6-13.3-11.7h6.4c0,3.4,3.1,5.6,6.8,5.6c3.7,0,6.6-2,6.6-5.6s-3.4-5.2-6.6-5.2
				c-8.2,0-13.3-5-13.3-13.2s5.9-13.3,13.3-13.3c2.1,0,4.2,0.3,6,1.5L434.9,352.9z M419.5,368c0,4.6,3.1,7.3,6.8,7.3
				c3.7,0,6.8-2.8,6.8-7.3s-3.1-7.4-6.8-7.4C422.6,360.6,419.5,363.4,419.5,368z"/>
		</g>
	</g>
	<g>
		<g>
			<text transform="matrix(0.866 -0.5 0.5 0.866 249.8974 532.753)" class="st2 st4 st5">github.com/rjdverse/rjd3nowcasting</text>
		</g>
	</g>
</g>
</svg>
